<?xml version="1.0" encoding="UTF-8" standalone="no"?>
<!-- Uploaded to: SVG Repo, www.svgrepo.com, Generator: SVG Repo Mixer Tools -->

<svg
   fill="#000000"
   height="800"
   width="800"
   version="1.1"
   id="Capa_1"
   viewBox="0 0 395 395"
   xml:space="preserve"
   xmlns="http://www.w3.org/2000/svg"
   xmlns:svg="http://www.w3.org/2000/svg"><defs
   id="defs6" />
<g
   id="g6">
	<path
   d="M 313.002,0 H 82 C 36.785,0 0,36.784 0,81.998 V 312.991 C 0,358.211 36.785,395 82,395 H 313.002 C 358.216,395 395,358.211 395,312.991 V 81.998 C 395,36.784 358.216,0 313.002,0 Z M 380,312.991 C 380,349.94 349.944,380 313.002,380 H 82 C 45.056,380 15,349.94 15,312.991 V 81.998 C 15,45.056 45.056,15 82,15 H 313.002 C 349.944,15 380,45.056 380,81.998 Z"
   id="path1" />
	<path
   d="m 206.403,33.004 h -17.807 c -54.331,0 -98.532,44.201 -98.532,98.532 v 160.951 h 18.992 V 131.536 c 0,-43.858 35.682,-79.54 79.54,-79.54 h 17.807 c 43.858,0 79.54,35.682 79.54,79.54 v 160.951 h 18.992 V 131.536 c 0,-54.331 -44.201,-98.532 -98.532,-98.532 z"
   id="path2" />
	<path
   d="m 200.833,96.086 h -6.666 c -18.414,0 -33.337,14.925 -33.337,33.335 v 80.613 h 73.34 v -80.613 c 0,-18.41 -14.921,-33.335 -33.337,-33.335 z"
   id="path3" />
	<path
   d="m 190.82,217.914 c -1.126,11.393 -2.259,22.784 -3.388,34.177 h 20.134 c -1.128,-11.393 -2.262,-22.784 -3.386,-34.177 -5.344,0 -8.014,0 -13.36,0 z"
   id="path4" />
	<path
   d="m 181.096,315.953 c -1.21,12.183 -2.415,24.364 -3.624,36.547 13.349,0 26.709,0 40.057,0 -1.209,-12.183 -2.414,-24.364 -3.624,-36.547 z"
   id="path5" />
	<path
   d="m 182.223,304.619 h 30.555 c -1.363,-13.731 -2.721,-27.463 -4.086,-41.194 h -22.383 c -1.366,13.731 -2.724,27.463 -4.086,41.194 z"
   id="path6" />
</g>
<text
   xml:space="preserve"
   style="font-size:117.301px;font-family:'Atari Raster';-inkscape-font-specification:'Atari Raster';fill:#008000;stroke-width:4.61815"
   x="35.002037"
   y="218.41737"
   id="text6"
   transform="scale(0.95244743,1.0499267)"><tspan
     id="tspan6"
     style="font-size:117.301px;fill:#008000;stroke-width:4.61814"
     x="35.002037"
     y="218.41737">Glue</tspan></text></svg>
